HIERARCHY
ROOT Hips
{
  OFFSET -5.66989 14.5892 -1.04108
  CHANNELS 6 Xposition Yposition Zposition Zrotation Xrotation Yrotation
  JOINT Bip01_Pelvis
  {
    OFFSET 0 0 0
    CHANNELS 6 Xposition Yposition Zposition Zrotation Xrotation Yrotation
    JOINT BN_Tail_01
    {
      OFFSET -1.93658 -0.0537033 0
      CHANNELS 6 Xposition Yposition Zposition Zrotation Xrotation Yrotation
      JOINT BN_Tail_02
      {
        OFFSET 3.80098 0 0
        CHANNELS 6 Xposition Yposition Zposition Zrotation Xrotation Yrotation
        JOINT BN_Tail_03
        {
          OFFSET 4.13452 0 0
          CHANNELS 6 Xposition Yposition Zposition Zrotation Xrotation Yrotation
          End Site
          {
            OFFSET 0 0 0
          }
        }
      }
    }
    JOINT Bip01_Spine
    {
      OFFSET 2.49484 0.4396 -0.350589
      CHANNELS 6 Xposition Yposition Zposition Zrotation Xrotation Yrotation
      JOINT Bip01_R_Thigh
      {
        OFFSET -2.36788 -0.528529 -2.17686
        CHANNELS 6 Xposition Yposition Zposition Zrotation Xrotation Yrotation
        JOINT Bip01_R_Calf
        {
          OFFSET 7.16877 0 0
          CHANNELS 6 Xposition Yposition Zposition Zrotation Xrotation Yrotation
          JOINT Bip01_R_HorseLink
          {
            OFFSET 5.71658 0 0
            CHANNELS 6 Xposition Yposition Zposition Zrotation Xrotation Yrotation
            JOINT Bip01_R_Foot
            {
              OFFSET 4.09528 0 0
              CHANNELS 6 Xposition Yposition Zposition Zrotation Xrotation Yrotation
              JOINT Bip01_R_Toe3
              {
                OFFSET 0.688901 -0.165618 -0.0515646
                CHANNELS 6 Xposition Yposition Zposition Zrotation Xrotation Yrotation
                JOINT Bip01_R_Toe3Nub
                {
                  OFFSET 2.31698 0 0
                  CHANNELS 6 Xposition Yposition Zposition Zrotation Xrotation Yrotation
                  End Site
                  {
                    OFFSET 0 0 0
                  }
                }
              }
              JOINT Bip01_R_Toe2
              {
                OFFSET 0.917067 0.515958 -0.245308
                CHANNELS 6 Xposition Yposition Zposition Zrotation Xrotation Yrotation
                JOINT Bip01_R_Toe2Nub
                {
                  OFFSET 2.54684 0 0
                  CHANNELS 6 Xposition Yposition Zposition Zrotation Xrotation Yrotation
                  End Site
                  {
                    OFFSET 0 0 0
                  }
                }
              }
              JOINT Bip01_R_Toe1
              {
                OFFSET 0.948626 0.783529 0.204368
                CHANNELS 6 Xposition Yposition Zposition Zrotation Xrotation Yrotation
                JOINT Bip01_R_Toe1Nub
                {
                  OFFSET 2.98415 0 0
                  CHANNELS 6 Xposition Yposition Zposition Zrotation Xrotation Yrotation
                  End Site
                  {
                    OFFSET 0 0 0
                  }
                }
              }
              JOINT Bip01_R_Toe0
              {
                OFFSET 0.945014 0.361084 0.455508
                CHANNELS 6 Xposition Yposition Zposition Zrotation Xrotation Yrotation
                JOINT Bip01_R_Toe0Nub
                {
                  OFFSET 2.53654 0 0
                  CHANNELS 6 Xposition Yposition Zposition Zrotation Xrotation Yrotation
                  End Site
                  {
                    OFFSET 0 0 0
                  }
                }
              }
            }
          }
        }
      }
      JOINT Bip01_L_Thigh
      {
        OFFSET -2.59706 -0.617793 2.62045
        CHANNELS 6 Xposition Yposition Zposition Zrotation Xrotation Yrotation
        JOINT Bip01_L_Calf
        {
          OFFSET 7.16876 0 0
          CHANNELS 6 Xposition Yposition Zposition Zrotation Xrotation Yrotation
          JOINT Bip01_L_HorseLink
          {
            OFFSET 5.71658 0 0
            CHANNELS 6 Xposition Yposition Zposition Zrotation Xrotation Yrotation
            JOINT Bip01_L_Foot
            {
              OFFSET 4.09528 0 0
              CHANNELS 6 Xposition Yposition Zposition Zrotation Xrotation Yrotation
              JOINT Bip01_L_Toe3
              {
                OFFSET 0.688902 -0.165618 0.0515647
                CHANNELS 6 Xposition Yposition Zposition Zrotation Xrotation Yrotation
                JOINT Bip01_L_Toe3Nub
                {
                  OFFSET 2.31698 0 0
                  CHANNELS 6 Xposition Yposition Zposition Zrotation Xrotation Yrotation
                  End Site
                  {
                    OFFSET 0 0 0
                  }
                }
              }
              JOINT Bip01_L_Toe2
              {
                OFFSET 0.917065 0.515959 0.245311
                CHANNELS 6 Xposition Yposition Zposition Zrotation Xrotation Yrotation
                JOINT Bip01_L_Toe2Nub
                {
                  OFFSET 2.54684 0 0
                  CHANNELS 6 Xposition Yposition Zposition Zrotation Xrotation Yrotation
                  End Site
                  {
                    OFFSET 0 0 0
                  }
                }
              }
              JOINT Bip01_L_Toe1
              {
                OFFSET 0.948627 0.78353 -0.204366
                CHANNELS 6 Xposition Yposition Zposition Zrotation Xrotation Yrotation
                JOINT Bip01_L_Toe1Nub
                {
                  OFFSET 2.98415 0 0
                  CHANNELS 6 Xposition Yposition Zposition Zrotation Xrotation Yrotation
                  End Site
                  {
                    OFFSET 0 0 0
                  }
                }
              }
              JOINT Bip01_L_Toe0
              {
                OFFSET 0.945014 0.361085 -0.455508
                CHANNELS 6 Xposition Yposition Zposition Zrotation Xrotation Yrotation
                JOINT Bip01_L_Toe0Nub
                {
                  OFFSET 2.53654 0 0
                  CHANNELS 6 Xposition Yposition Zposition Zrotation Xrotation Yrotation
                  End Site
                  {
                    OFFSET 0 0 0
                  }
                }
              }
            }
          }
        }
      }
      JOINT Bip01_Spine1
      {
        OFFSET 3.72608 -0.00323868 0.000187963
        CHANNELS 6 Xposition Yposition Zposition Zrotation Xrotation Yrotation
        JOINT BN_Finger_R_01
        {
          OFFSET 3.00123 -0.0843508 -4.58748
          CHANNELS 6 Xposition Yposition Zposition Zrotation Xrotation Yrotation
          JOINT BN_Finger_R_02
          {
            OFFSET 5.88015 0 0
            CHANNELS 6 Xposition Yposition Zposition Zrotation Xrotation Yrotation
            End Site
            {
              OFFSET 0 0 0
            }
          }
        }
        JOINT BN_Finger_L_01
        {
          OFFSET 3.00122 -0.0843704 4.58724
          CHANNELS 6 Xposition Yposition Zposition Zrotation Xrotation Yrotation
          JOINT BN_Finger_L_02
          {
            OFFSET 5.88015 0 0
            CHANNELS 6 Xposition Yposition Zposition Zrotation Xrotation Yrotation
            End Site
            {
              OFFSET 0 0 0
            }
          }
        }
        JOINT Bip01_Neck
        {
          OFFSET 4.13883 -0.0022707 1.01402e-005
          CHANNELS 6 Xposition Yposition Zposition Zrotation Xrotation Yrotation
          JOINT Bip01_Neck1
          {
            OFFSET 3.21838 -0.00219488 -2.03252e-005
            CHANNELS 6 Xposition Yposition Zposition Zrotation Xrotation Yrotation
            JOINT Bip01_Neck2
            {
              OFFSET 3.42188 -0.00260592 1.77622e-005
              CHANNELS 6 Xposition Yposition Zposition Zrotation Xrotation Yrotation
              JOINT Bip01_Head
              {
                OFFSET 3.32298 0 0
                CHANNELS 6 Xposition Yposition Zposition Zrotation Xrotation Yrotation
                JOINT BN_Mouth_01
                {
                  OFFSET 1.65821 0.977865 2.28871e-005
                  CHANNELS 6 Xposition Yposition Zposition Zrotation Xrotation Yrotation
                  End Site
                  {
                    OFFSET 0 0 0
                  }
                }
                JOINT Bip01_HeadNub
                {
                  OFFSET 4.48783 0 0
                  CHANNELS 6 Xposition Yposition Zposition Zrotation Xrotation Yrotation
                  End Site
                  {
                    OFFSET 0 0 0
                  }
                }
              }
            }
          }
        }
      }
    }
  }
}
MOTION
Frames:	4
Frame Time:	0.0333333
-3.37174 12.9706 0 -102.73 -87.5121 -11.6526 9.53674e-007 0 0 -90 -12.9386 -90 -1.93658 -0.0537004 -2.5034e-006 16.5059 0.0861281 -177.71 3.80099 -2.86102e-006 -1.19209e-007 -7.94087 -0.170334 2.40593 4.13452 4.76837e-006 -1.19209e-007 -8.89181 0.0801827 -0.0493606 2.49328 -0.575736 -5.06639e-006 2.90093 0.150034 0.464717 -2.44137 0.694888 -2.42351 -146.234 -1.24408 175.902 7.16876 4.76837e-007 -4.44089e-016 -109.957 1.75936e-005 9.90594e-007 5.71658 0 -4.44089e-016 65.9866 5.64537e-006 3.61045e-006 4.09528 2.38419e-006 2.38419e-007 5.60255 -6.42501 3.02745 0.688901 -0.165618 -0.0515645 106.878 -3.13905 169.769 2.31698 4.44089e-016 -2.38419e-007 -5.94602e-007 1.00272e-005 -3.37927e-007 0.917067 0.515957 -0.245308 78.1916 -4.23679 22.1322 2.54684 -2.98023e-008 5.96046e-008 1.8795e-008 -1.92303e-007 7.78943e-008 0.948626 0.783529 0.204366 81.1524 2.85559 -15.3266 2.98415 1.49012e-008 4.44089e-016 -2.14924e-007 -9.9e-009 5.69089e-007 0.945014 0.361084 0.455508 84.7269 9.18898 -52.8833 2.53654 0 0 -1.20686e-007 9.75877e-006 -3.76398e-008 -2.48034 0.707474 2.37993 -159.692 1.67474 -174.686 7.16876 -2.86102e-006 4.44089e-016 -96.3872 1.60523e-005 1.16358e-005 5.71658 4.76837e-007 0 86.7346 7.07085e-006 -9.74281e-006 4.09528 1.19209e-007 0 -42.3487 2.31068 -1.37324 0.688901 -0.165616 0.0515644 106.878 3.13917 -169.769 2.31698 -2.98023e-008 2.38419e-007 -180 -1.11251e-005 -3.30871e-006 0.917067 0.515958 0.245308 78.1916 4.23677 -22.1322 2.54684 -1.11022e-016 0 -180 -5.11037e-006 -8.36752e-007 0.948626 0.783529 -0.204366 81.1524 -2.85559 15.3266 2.98415 -1.11022e-016 2.38419e-007 -180 -1.00987e-005 -9.7032e-006 0.945014 0.361087 -0.455508 84.7268 -9.18899 52.8833 2.53654 0 -1.78814e-007 -180 -3.16558e-007 1.68216e-005 3.72689 -0.00328636 -5.06639e-006 3.72624 0.100355 0.478049 3.00123 -0.0843535 -4.58748 8.43921 1.3228 172.779 5.88015 -2.86102e-006 0 1.49625 -0.0919321 11.5728 3.00122 -0.0843697 4.58724 -167.528 0.802325 -8.26589 5.88015 9.53675e-007 2.38419e-007 -1.78854 0.268743 11.154 4.13959 -0.00252438 -0.000134617 -9.73216 2.99265 -6.32183 3.22065 -0.00264454 -0.000109181 13.8568 2.27848 -6.82618 3.42197 -0.00258827 -0.000106737 11.802 2.29104 -6.8586 3.32298 9.53674e-007 -2.98023e-008 39.3923 -1.77737 3.40159 1.65821 0.977862 2.27094e-005 -165.167 7.01671e-015 -180 4.48783 3.55271e-015 0 -1.40146e-007 9.113e-006 1.92016e-007 
-3.39344 13.2396 0.0154321 -101.77 -87.465 -11.6806 9.53674e-007 0 0 -90 -13.225 -90 -1.93658 -0.0537004 -2.5034e-006 16.0185 0.0786399 -177.673 3.80099 -2.86102e-006 -1.19209e-007 -7.45179 -0.151202 2.41816 4.13452 4.76837e-006 -1.19209e-007 -8.59711 0.0811203 -0.0576604 2.49328 -0.575736 -5.06639e-006 -1.73291 0.0751967 0.474206 -2.44137 0.694888 -2.42351 -140.343 -1.31099 176.066 7.16876 4.76837e-007 -8.88178e-016 -107.012 -8.4698e-006 -7.91317e-006 5.71658 3.55271e-015 0 63.4914 8.93963e-006 5.6022e-006 4.09528 2.38419e-006 2.38419e-007 5.69338 -6.41259 2.87123 0.688901 -0.165618 -0.0515645 106.878 -3.13919 169.769 2.31698 1.33227e-015 -2.38419e-007 -1.06125e-005 1.00272e-005 9.67999e-006 0.917067 0.515957 -0.245308 78.1916 -4.23679 22.1322 2.54684 -2.98023e-008 5.96046e-008 1.8795e-008 -1.92303e-007 7.78943e-008 0.948626 0.783529 0.204366 81.1524 2.85558 -15.3265 2.98415 1.49012e-008 0 -2.14924e-007 -9.9e-009 5.69089e-007 0.945014 0.361084 0.455508 84.7269 9.189 -52.8831 2.53654 -6.9944e-015 1.77636e-015 -1.20688e-007 9.75877e-006 9.98027e-006 -2.48034 0.707474 2.37993 -153.589 1.83315 -174.599 7.16876 -2.86102e-006 3.10862e-015 -93.6356 -3.59761e-006 9.51699e-006 5.71658 4.76837e-007 -4.44089e-016 83.4965 -1.58514e-005 -1.19982e-005 4.09528 1.19209e-007 0 -41.0833 2.40134 -1.37995 0.688901 -0.165616 0.0515644 106.872 3.13911 -169.769 2.31698 -2.98023e-008 2.38419e-007 -180 -1.11251e-005 -3.30871e-006 0.917067 0.515958 0.245308 78.1854 4.23673 -22.1322 2.54684 -5.88419e-015 0 -180 -5.11037e-006 1.43642e-007 0.948626 0.783529 -0.204366 81.1462 -2.85565 15.3266 2.98415 -3.55272e-015 2.38419e-007 -180 -1.00987e-005 -9.7032e-006 0.945014 0.361087 -0.455508 84.7207 -9.18905 52.8833 2.53654 -2.88658e-015 -1.78814e-007 -180 -3.16558e-007 1.68216e-005 3.72689 -0.00328636 -5.06639e-006 -0.24418 0.0671012 0.462888 3.00123 -0.0843535 -4.58748 7.82523 1.39962 172.788 5.88015 -2.86102e-006 0 1.42201 -0.106387 11.6033 3.00122 -0.0843697 4.58724 -167.948 0.872808 -8.21461 5.88015 9.53675e-007 2.38419e-007 -1.8918 0.244692 11.2692 4.13959 -0.00252438 -0.000134617 -28.1511 4.77327 -5.09395 3.22065 -0.00264454 -0.000109181 -5.45003 4.09653 -5.47369 3.42197 -0.00258827 -0.000106737 -6.62538 4.04312 -5.66489 3.32298 9.53674e-007 -2.98023e-008 45.2682 5.45278 2.14774 1.65821 0.977862 2.27018e-005 -165.167 0.000167847 -180 4.48783 3.55271e-015 2.44249e-015 -1.01581e-005 9.113e-006 1.02099e-005 
-3.43838 13.5121 0.0474066 -99.413 -87.3697 -10.3382 9.53674e-007 0 -4.44089e-016 -90.0001 -13.5266 -90 -1.93658 -0.0537004 -2.5034e-006 15.4412 0.0699016 -177.628 3.80099 -2.86102e-006 -1.19209e-007 -6.86481 -0.128589 2.4377 4.13452 4.76837e-006 -1.19209e-007 -8.20974 0.0821214 -0.0678611 2.49328 -0.575736 -5.06639e-006 -4.44922 -0.0441222 0.469708 -2.44137 0.694888 -2.42351 -136.801 -1.47063 176.294 7.16876 4.76837e-007 -1.33227e-015 -104.027 -1.96059e-006 -5.77636e-006 5.71658 -2.66454e-015 -1.33227e-015 59.885 8.60457e-006 6.16889e-006 4.09528 2.38419e-006 2.38419e-007 6.42087 -6.49185 2.63955 0.688901 -0.165618 -0.0515645 106.878 -3.13916 169.769 2.31698 -1.33227e-015 -2.38419e-007 -1.06125e-005 1.00272e-005 9.67999e-006 0.917067 0.515957 -0.245308 78.1916 -4.2368 22.1323 2.54684 -2.98023e-008 5.96046e-008 1.8795e-008 -1.92303e-007 7.78943e-008 0.948626 0.783529 0.204366 81.1524 2.85559 -15.3266 2.98415 1.49012e-008 -4.44089e-016 -2.14924e-007 -9.9e-009 5.69089e-007 0.945014 0.361084 0.455508 84.7269 9.18899 -52.8831 2.53654 1.88738e-015 -1.77636e-015 -1.20688e-007 9.75877e-006 9.98027e-006 -2.48034 0.707474 2.37993 -149.338 1.92221 -174.436 7.16876 -2.86102e-006 5.32907e-015 -90.6124 -1.01657e-005 9.58284e-006 5.71658 4.76837e-007 0 80.1789 6.31883e-006 -9.19471e-006 4.09528 1.19209e-007 4.44089e-016 -39.9498 2.44149 -1.47891 0.688901 -0.165616 0.0515644 106.867 3.13908 -169.769 2.31698 -2.98023e-008 2.38419e-007 -180 -1.11251e-005 -3.30871e-006 0.917067 0.515958 0.245308 78.1799 4.23669 -22.1322 2.54684 -1.94289e-015 -1.77636e-015 -180 -5.11037e-006 -1.83675e-006 0.948626 0.783529 -0.204366 81.1407 -2.85571 15.3266 2.98415 -7.77157e-016 2.38419e-007 -180 -1.00987e-005 3.14719e-007 0.945014 0.361087 -0.455508 84.7152 -9.1891 52.8833 2.53654 -1.55431e-015 -1.78814e-007 -180 -3.16558e-007 1.68216e-005 3.72689 -0.00328636 -5.06639e-006 -1.59502 0.0576497 0.411189 3.00123 -0.0843535 -4.58748 7.05549 1.49585 172.799 5.88015 -2.86102e-006 1.77636e-015 1.33441 -0.123546 11.6393 3.00122 -0.0843697 4.58724 -168.484 0.961512 -8.1492 5.88015 9.53675e-007 2.38419e-007 -2.08544 0.201233 11.4065 4.13959 -0.00252438 -0.000134617 -34.2064 5.09477 -4.62823 3.22065 -0.00264454 -0.000109181 -13.8987 4.19591 -4.11187 3.42197 -0.00258827 -0.000106737 -12.7668 3.93378 -4.72625 3.32298 9.53674e-007 -2.98023e-008 48.4208 7.47683 3.2985 1.65821 0.977862 2.27143e-005 -165.167 1.52588e-005 -180 4.48783 -3.55271e-015 1.38778e-016 -1.01581e-005 9.113e-006 1.02099e-005 
-3.48137 13.7862 0.0779907 -97.4164 -87.2757 -9.35753 9.53674e-007 0 0 -90 -13.8289 -90 -1.93658 -0.0537004 -2.5034e-006 15.4145 0.0601145 -177.642 3.80099 -2.86102e-006 -1.19209e-007 -6.82619 -0.128603 2.45163 4.13452 4.76837e-006 -1.19209e-007 -8.12103 0.0769178 -0.0322594 2.49328 -0.575736 -5.06639e-006 -6.37405 -0.183631 0.454135 -2.44137 0.694888 -2.42351 -133.871 -1.57187 176.524 7.16876 4.76837e-007 -1.77636e-015 -100.929 2.01379e-007 -5.23501e-006 5.71658 -8.88179e-016 4.44089e-016 56.3933 3.37881e-007 1.45154e-006 4.09528 2.38419e-006 2.38419e-007 7.09162 -6.55802 2.42342 0.688901 -0.165618 -0.0515645 106.878 -3.13904 169.769 2.31698 -2.66454e-015 -2.38419e-007 -1.06125e-005 1.00272e-005 -3.37922e-007 0.917067 0.515957 -0.245308 78.1917 -4.23681 22.1324 2.54684 -2.98023e-008 5.96046e-008 1.8795e-008 -1.92303e-007 7.78943e-008 0.948626 0.783529 0.204366 81.1524 2.85559 -15.3266 2.98415 1.49012e-008 4.44089e-016 -2.14924e-007 -9.9e-009 5.69089e-007 0.945014 0.361084 0.455508 84.7269 9.18901 -52.8831 2.53654 -2.66454e-015 0 -1.20688e-007 9.75877e-006 9.98026e-006 -2.48034 0.707474 2.37993 -145.548 1.98548 -174.297 7.16876 -2.86102e-006 4.88498e-015 -87.2911 -9.60773e-006 1.01306e-005 5.71658 4.76837e-007 0 77.3111 3.82527e-006 -9.5546e-006 4.09528 1.19209e-007 1.33227e-015 -39.2428 2.42933 -1.58582 0.688901 -0.165616 0.0515644 106.864 3.13905 -169.769 2.31698 -2.98023e-008 2.38419e-007 -180 -1.11251e-005 -3.30871e-006 0.917067 0.515958 0.245308 78.1776 4.23664 -22.1321 2.54684 -1.11577e-014 -8.88178e-016 -180 -5.11037e-006 -1.83675e-006 0.948626 0.783529 -0.204366 81.1384 -2.85576 15.3267 2.98415 -2.22045e-015 2.38419e-007 -180 -1.00987e-005 -9.7032e-006 0.945014 0.361087 -0.455508 84.7129 -9.18913 52.8834 2.53654 -1.11022e-016 -1.78814e-007 -180 -3.16558e-007 1.68216e-005 3.72689 -0.00328636 -5.06639e-006 -1.64375 0.059392 0.338319 3.00123 -0.0843535 -4.58748 6.93159 1.51067 172.795 5.88015 -2.86102e-006 3.55271e-015 1.78273 -0.0313728 11.6342 3.00122 -0.0843697 4.58724 -168.586 0.982387 -8.11627 5.88015 9.53675e-007 2.38419e-007 -2.55095 0.10823 11.3869 4.13959 -0.00252438 -0.000134617 -33.984 4.82448 -4.72598 3.22065 -0.00264454 -0.000109181 -16.8433 3.55718 -2.94435 3.42197 -0.00258827 -0.000106737 -12.6645 3.03189 -4.07664 3.32298 9.53674e-007 -2.98023e-008 49.7449 7.27725 0.742927 1.65821 0.977862 2.27154e-005 -165.167 4.57764e-005 -180 4.48783 1.42109e-014 -1.66533e-015 -1.01581e-005 9.113e-006 1.02099e-005 
